<?xml version="1.0" encoding="UTF-8"?>
<svg xmlns="http://www.w3.org/2000/svg" xmlns:xlink="http://www.w3.org/1999/xlink" width="16pt" height="16pt" viewBox="0 0 16 16" version="1.1">
<g id="surface1">
<path style=" stroke:none;fill-rule:nonzero;fill:rgb(0%,0%,0%);fill-opacity:1;" d="M 4.21875 5.78125 L 8.570312 5.78125 C 8.847656 5.78125 9.070312 5.554688 9.070312 5.28125 C 9.070312 5.003906 8.847656 4.78125 8.570312 4.78125 L 4.21875 4.78125 C 3.945312 4.78125 3.71875 5.003906 3.71875 5.28125 C 3.71875 5.554688 3.945312 5.78125 4.21875 5.78125 Z M 4.21875 8.5 L 6.941406 8.5 C 7.214844 8.5 7.441406 8.277344 7.441406 8 C 7.441406 7.722656 7.214844 7.5 6.941406 7.5 L 4.21875 7.5 C 3.945312 7.5 3.71875 7.722656 3.71875 8 C 3.71875 8.277344 3.945312 8.5 4.21875 8.5 Z M 4.21875 8.5 "/>
<path style=" stroke:none;fill-rule:nonzero;fill:rgb(0%,0%,0%);fill-opacity:1;" d="M 4.21875 11.21875 L 10.109375 11.21875 C 10.242188 11.222656 10.371094 11.167969 10.464844 11.074219 L 14.695312 6.84375 C 14.898438 6.648438 15.011719 6.378906 15.011719 6.09375 C 15.011719 5.8125 14.898438 5.542969 14.695312 5.34375 L 13.925781 4.59375 C 13.726562 4.390625 13.457031 4.277344 13.175781 4.277344 C 12.890625 4.277344 12.621094 4.390625 12.425781 4.59375 L 11.765625 5.253906 L 11.765625 2.558594 C 11.773438 1.988281 11.316406 1.511719 10.746094 1.5 L 2.046875 1.5 C 1.765625 1.5 1.496094 1.613281 1.300781 1.8125 C 1.105469 2.011719 0.996094 2.28125 1 2.558594 L 1 13.441406 C 0.996094 13.71875 1.105469 13.988281 1.300781 14.1875 C 1.496094 14.386719 1.765625 14.5 2.046875 14.5 L 10.746094 14.5 C 11.320312 14.5 11.789062 14.03125 11.789062 13.453125 L 11.789062 12 C 11.789062 11.722656 11.566406 11.5 11.289062 11.5 C 11.015625 11.5 10.789062 11.722656 10.789062 12 L 10.789062 13.441406 C 10.789062 13.464844 10.769531 13.484375 10.746094 13.484375 L 2.046875 13.484375 C 2.019531 13.484375 2 13.464844 2 13.441406 L 2 2.558594 C 1.996094 2.546875 1.996094 2.53125 2.007812 2.519531 C 2.015625 2.503906 2.03125 2.5 2.046875 2.5 L 10.746094 2.5 C 10.769531 2.5 10.789062 2.519531 10.789062 2.546875 L 10.789062 6.238281 L 8.214844 8.816406 C 8.121094 8.910156 8.070312 9.035156 8.070312 9.171875 L 8.070312 10.210938 L 4.21875 10.210938 C 3.945312 10.210938 3.71875 10.433594 3.71875 10.710938 C 3.71875 10.984375 3.945312 11.210938 4.21875 11.210938 Z M 9.070312 9.390625 L 11.628906 6.828125 L 11.65625 6.804688 L 13.15625 5.304688 C 13.171875 5.289062 13.199219 5.289062 13.214844 5.304688 L 14 6.074219 L 14 6.136719 L 9.914062 10.21875 L 9.070312 10.21875 Z M 9.070312 9.390625 "/>
</g>
</svg>
